<svg width="16" height="16" viewBox="0 0 16 16" fill="none" xmlns="http://www.w3.org/2000/svg">
<g clip-path="url(#clip0_6_48)">
<path d="M13.488 1.728H11.92V0.944004C11.92 0.73607 11.8374 0.53667 11.6904 0.389604C11.5434 0.242604 11.3439 0.160004 11.136 0.160004C10.9281 0.160004 10.7287 0.242604 10.5817 0.389604C10.4347 0.53667 10.352 0.73607 10.352 0.944004V1.728H5.648V0.944004C5.648 0.73607 5.5654 0.53667 5.4184 0.389604C5.27133 0.242604 5.07193 0.160004 4.864 0.160004C4.65607 0.160004 4.45667 0.242604 4.3096 0.389604C4.1626 0.53667 4.08 0.73607 4.08 0.944004V1.728H2.512C1.8882 1.728 1.29 1.9758 0.848866 2.41687C0.4078 2.858 0.16 3.4562 0.16 4.08V13.488C0.16 14.1117 0.4078 14.71 0.848866 15.1511C1.29 15.5922 1.8882 15.84 2.512 15.84H13.488C14.1117 15.84 14.71 15.5922 15.1511 15.1511C15.5922 14.71 15.84 14.1117 15.84 13.488V4.08C15.84 3.4562 15.5922 2.858 15.1511 2.41687C14.71 1.9758 14.1117 1.728 13.488 1.728ZM14.272 13.488C14.272 13.6959 14.1894 13.8954 14.0424 14.0424C13.8954 14.1894 13.6959 14.272 13.488 14.272H2.512C2.30407 14.272 2.10467 14.1894 1.9576 14.0424C1.8106 13.8954 1.728 13.6959 1.728 13.488V8H14.272V13.488ZM14.272 6.432H1.728V4.08C1.728 3.87207 1.8106 3.67267 1.9576 3.5256C2.10467 3.3786 2.30407 3.296 2.512 3.296H4.08V4.08C4.08 4.28794 4.1626 4.48734 4.3096 4.6344C4.45667 4.7814 4.65607 4.864 4.864 4.864C5.07193 4.864 5.27133 4.7814 5.4184 4.6344C5.5654 4.48734 5.648 4.28794 5.648 4.08V3.296H10.352V4.08C10.352 4.28794 10.4347 4.48734 10.5817 4.6344C10.7287 4.7814 10.9281 4.864 11.136 4.864C11.3439 4.864 11.5434 4.7814 11.6904 4.6344C11.8374 4.48734 11.92 4.28794 11.92 4.08V3.296H13.488C13.6959 3.296 13.8954 3.3786 14.0424 3.5256C14.1894 3.67267 14.272 3.87207 14.272 4.08V6.432Z" fill="black"/>
</g>
<defs>
<clipPath id="clip0_6_48">
<rect width="16" height="16" fill="white"/>
</clipPath>
</defs>
</svg>
