<svg width="16" height="16" viewBox="0 0 16 16" fill="none" xmlns="http://www.w3.org/2000/svg">
<path d="M6.42375 2.375H5.03125C4.65829 2.375 4.3006 2.52316 4.03688 2.78688C3.77316 3.0506 3.625 3.40829 3.625 3.78125V12.2188C3.625 12.5917 3.77316 12.9494 4.03688 13.2131C4.3006 13.4768 4.65829 13.625 5.03125 13.625H10.6562C10.8409 13.625 11.0238 13.5886 11.1944 13.518C11.365 13.4473 11.52 13.3437 11.6506 13.2131C11.7812 13.0825 11.8848 12.9275 11.9555 12.7569C12.0261 12.5863 12.0625 12.4034 12.0625 12.2188V8M6.42375 2.375C7.20062 2.375 7.84375 3.00437 7.84375 3.78125V5.1875C7.84375 5.37217 7.88012 5.55503 7.95079 5.72565C8.02146 5.89626 8.12505 6.05129 8.25563 6.18187C8.51935 6.44559 8.87704 6.59375 9.25 6.59375H10.6562C10.8409 6.59375 11.0238 6.63012 11.1944 6.70079C11.365 6.77146 11.52 6.87505 11.6506 7.00563C11.7812 7.13621 11.8848 7.29124 11.9555 7.46185C12.0261 7.63247 12.0625 7.81533 12.0625 8M6.42375 2.375C8.73 2.375 12.0625 5.725 12.0625 8M6.125 10.8125H9.875M6.125 8.9375H8.625" stroke="#0056A3" stroke-linecap="round" stroke-linejoin="round"/>
</svg>
