<svg width="16" height="16" viewBox="0 0 16 16" fill="none" xmlns="http://www.w3.org/2000/svg">
<path d="M10.5 10.5L8 8L5.5 10.5" stroke="#808080" stroke-linecap="round" stroke-linejoin="round"/>
<path d="M8 8V13.625" stroke="#808080" stroke-linecap="round" stroke-linejoin="round"/>
<path d="M13.2437 11.9937C13.8533 11.6614 14.3349 11.1355 14.6124 10.4991C14.8899 9.86273 14.9476 9.15202 14.7764 8.47918C14.6051 7.80634 14.2147 7.20969 13.6667 6.7834C13.1187 6.35711 12.4443 6.12546 11.75 6.125H10.9625C10.7733 5.39327 10.4207 4.71396 9.93122 4.13812C9.44171 3.56228 8.82803 3.1049 8.13631 2.80038C7.4446 2.49585 6.69284 2.3521 5.93757 2.37992C5.1823 2.40775 4.44317 2.60644 3.77574 2.96104C3.1083 3.31564 2.52994 3.81694 2.08414 4.42724C1.63833 5.03754 1.33668 5.74096 1.20186 6.48462C1.06704 7.22828 1.10257 7.99283 1.30576 8.72079C1.50895 9.44874 1.87453 10.1212 2.375 10.6875" stroke="#808080" stroke-linecap="round" stroke-linejoin="round"/>
<path d="M10.5 10.5L8 8L5.5 10.5" stroke="#808080" stroke-linecap="round" stroke-linejoin="round"/>
</svg>
